<?xml version="1.0" encoding="UTF-8"?>
<!DOCTYPE svg PUBLIC "-//W3C//DTD SVG 1.1//EN" "http://www.w3.org/Graphics/SVG/1.1/DTD/svg11.dtd">
<!-- Creator: CorelDRAW -->
<svg xmlns="http://www.w3.org/2000/svg" xml:space="preserve" width="70.8457mm" height="18.3663mm" version="1.1" style="shape-rendering:geometricPrecision; text-rendering:geometricPrecision; image-rendering:optimizeQuality; fill-rule:evenodd; clip-rule:evenodd"
viewBox="0 0 658.43 170.69"
 xmlns:xlink="http://www.w3.org/1999/xlink"
 xmlns:xodm="http://www.corel.com/coreldraw/odm/2003">
 <defs>
  <style type="text/css">
   <![CDATA[
    .fil3 {fill:none}
    .fil0 {fill:#C5C6C6}
    .fil1 {fill:white}
    .fil5 {fill:url(#id3)}
    .fil2 {fill:url(#id4)}
    .fil4 {fill:url(#id5)}
   ]]>
  </style>
   <clipPath id="id0">
    <path d="M309.52 101.12c0.12,-8.16 6.97,-15.52 12.87,-19.51l-12.15 -14.35c-6.43,6.47 -21.03,17.55 -21.56,33.65 -0.7,20.87 16.66,35.02 33.93,35.23 24.09,0.29 39.92,-15.27 41.81,-39.6 2.32,-29.69 -23.24,-51.79 -41.99,-72.27l-24.09 28.34 11.92 14.65 12.15 -14.15c10.85,11.85 22.81,25.13 21.96,42.25 -1.39,28.03 -35.18,25.95 -34.86,5.76l0.02 0z"/>
   </clipPath>
   <clipPath id="id1">
    <path d="M332.62 114.82c-14.72,5.9 -30.71,-2.74 -31.78,-19.48 -0.68,-10.59 3.47,-19.89 9.39,-28.1 -6.43,6.47 -20.96,17.55 -21.56,33.65 -0.73,19.21 14.84,35.05 33.93,35.23 17.27,-0.18 34.59,-14.36 33.97,-35.23 -0.66,-22.01 -26.43,-42.17 -34.15,-47.78 10.85,11.85 22.81,25.13 21.96,42.25 -0.52,10.5 -5.63,16.79 -11.74,19.48l-0.02 -0.02z"/>
   </clipPath>
   <clipPath id="id2">
    <path d="M332.6 114.84c-10.21,4.46 -23.31,-1.11 -23.11,-13.72 0.12,-8.16 6.4,-15.08 12.87,-19.51l-12.15 -14.35c-5.92,8.22 -10.09,17.54 -9.41,28.1 1.07,16.73 17.07,25.38 31.79,19.48l0.02 -0z"/>
   </clipPath>
  <linearGradient id="id3" gradientUnits="userSpaceOnUse" x1="305.26" y1="91.87" x2="321" y2="80.34">
   <stop offset="0" style="stop-opacity:1; stop-color:#6E1568"/>
   <stop offset="0.509804" style="stop-opacity:1; stop-color:#4F0743"/>
   <stop offset="0.760784" style="stop-opacity:1; stop-color:#80085B"/>
   <stop offset="1" style="stop-opacity:1; stop-color:#C24D97"/>
  </linearGradient>
  <linearGradient id="id4" gradientUnits="userSpaceOnUse" x1="347.76" y1="56.38" x2="296.23" y2="99.04">
   <stop offset="0" style="stop-opacity:1; stop-color:#61C3D4"/>
   <stop offset="0.301961" style="stop-opacity:1; stop-color:#8D569E"/>
   <stop offset="0.65098" style="stop-opacity:1; stop-color:#B7468F"/>
   <stop offset="0.831373" style="stop-opacity:1; stop-color:#631360"/>
   <stop offset="1" style="stop-opacity:1; stop-color:#580F54"/>
  </linearGradient>
  <linearGradient id="id5" gradientUnits="userSpaceOnUse" x1="345.34" y1="29.73" x2="289.4" y2="122.4">
   <stop offset="0" style="stop-opacity:1; stop-color:#3364A8"/>
   <stop offset="0.670588" style="stop-opacity:1; stop-color:#883089"/>
   <stop offset="1" style="stop-opacity:1; stop-color:#F3A6C9"/>
  </linearGradient>
 </defs>
 <g id="Layer_x0020_1">
  <metadata id="CorelCorpID_0Corel-Layer"/>
  <path id="path1652" class="fil1" d="M402.35 66.26c2.99,0 5.76,0.52 8.27,1.53 2.51,1.02 4.72,2.41 6.59,4.21 1.87,1.8 3.33,3.94 4.38,6.42 1.05,2.5 1.57,5.2 1.57,8.14 0,2.94 -0.52,5.65 -1.57,8.14 -1.05,2.48 -2.5,4.63 -4.38,6.45 -1.87,1.82 -4.06,3.23 -6.59,4.24 -2.51,1.02 -5.28,1.53 -8.27,1.53l-8.43 0 0 15.5 -15.5 0 0 -56.16 23.93 0 0 -0.02zm-1.85 27.07c2.03,0 3.67,-0.62 4.9,-1.89 1.23,-1.26 1.85,-2.91 1.85,-4.94 0,-1.98 -0.62,-3.62 -1.85,-4.9 -1.23,-1.28 -2.87,-1.92 -4.9,-1.92l-6.59 0 0 13.65 6.59 0 0 0z"/>
  <path id="path1654" class="fil1" d="M451.5 105.25l-5.54 0 0 17.16 -15.49 0 0 -56.16 24.31 0c3.05,0 5.85,0.48 8.38,1.44 2.55,0.96 4.74,2.33 6.58,4.1 1.85,1.76 3.3,3.87 4.33,6.29 1.03,2.44 1.57,5.11 1.57,8.05 0,3.47 -0.78,6.56 -2.37,9.27 -1.59,2.71 -3.76,4.88 -6.54,6.54l11.16 20.46 -17.25 0 -9.14 -17.16 0.02 0zm-5.54 -13.08l7.06 0c2.19,0 3.88,-0.57 5.06,-1.73 1.18,-1.16 1.76,-2.6 1.76,-4.37 0,-1.76 -0.59,-3.23 -1.76,-4.37 -1.18,-1.16 -2.87,-1.73 -5.06,-1.73l-7.06 0 0 12.19z"/>
  <polygon id="path1656" class="fil1" points="485.79,66.26 501.44,66.26 501.44,122.42 485.79,122.42 "/>
  <polygon id="path1658" class="fil1" points="562.19,66.26 562.19,122.43 549.43,122.43 527.12,91.94 527.12,122.43 512.2,122.43 512.2,66.26 525.68,66.26 547.27,95.7 547.27,66.26 "/>
  <polygon id="path1660" class="fil1" points="618.13,80.21 602.81,80.21 602.81,122.43 587.32,122.43 587.32,80.21 572.08,80.21 572.08,66.26 618.13,66.26 "/>
  <path id="path1664" class="fil1" d="M68.51 113.25l-19.89 0 -3.14 9.14 -16.52 0 22.04 -56.14 15.08 0 22.53 56.14 -17 0 -3.12 -9.14 0.02 0zm-9.94 -29.51l-6.17 17.39 12.35 0 -6.17 -17.39 -0.02 0z"/>
  <path id="path1666" class="fil1" d="M137.55 130.1l-6.34 -7.79c-3.37,1.07 -6.91,1.6 -10.6,1.6 -4.49,0 -8.64,-0.73 -12.46,-2.21 -3.8,-1.48 -7.08,-3.53 -9.84,-6.15 -2.76,-2.62 -4.9,-5.74 -6.43,-9.36 -1.53,-3.62 -2.28,-7.56 -2.28,-11.85 0,-4.28 0.77,-8.23 2.28,-11.85 1.53,-3.62 3.67,-6.74 6.43,-9.36 2.76,-2.62 6.04,-4.67 9.84,-6.15 3.8,-1.48 7.95,-2.21 12.46,-2.21 4.49,0 8.64,0.73 12.42,2.21 3.78,1.48 7.02,3.51 9.77,6.11 2.73,2.6 4.87,5.7 6.38,9.32 1.53,3.62 2.28,7.59 2.28,11.92 0,4.44 -0.78,8.5 -2.37,12.17 -1.59,3.67 -3.81,6.81 -6.7,9.45l11.66 14.13 -16.47 0 -0.02 0zm-31.81 -35.75c0,2.19 0.37,4.22 1.12,6.06 0.75,1.85 1.78,3.44 3.1,4.78 1.32,1.34 2.89,2.39 4.7,3.14 1.82,0.75 3.8,1.12 5.95,1.12 2.14,0 4.12,-0.37 5.9,-1.12 1.8,-0.75 3.35,-1.8 4.65,-3.14 1.32,-1.34 2.33,-2.94 3.05,-4.78 0.73,-1.85 1.09,-3.87 1.09,-6.06 0,-2.19 -0.36,-4.22 -1.09,-6.06 -0.73,-1.85 -1.75,-3.44 -3.05,-4.78 -1.32,-1.34 -2.87,-2.39 -4.65,-3.14 -1.8,-0.75 -3.76,-1.12 -5.9,-1.12 -2.14,0 -4.12,0.37 -5.95,1.12 -1.82,0.75 -3.39,1.8 -4.7,3.14 -1.32,1.34 -2.33,2.94 -3.1,4.78 -0.75,1.85 -1.12,3.87 -1.12,6.06z"/>
  <path id="path1668" class="fil1" d="M185.81 123.98c-3.58,0 -6.9,-0.57 -9.93,-1.69 -3.03,-1.12 -5.63,-2.71 -7.79,-4.74 -2.17,-2.03 -3.85,-4.49 -5.06,-7.36 -1.21,-2.87 -1.8,-6.01 -1.8,-9.45l0 -34.47 15.83 0 0 34.22c0,2.73 0.8,4.92 2.41,6.54 1.6,1.64 3.72,2.44 6.34,2.44 2.57,0 4.65,-0.82 6.27,-2.44 1.6,-1.64 2.41,-3.81 2.41,-6.54l0 -34.22 15.83 0 0 34.47c0,3.42 -0.61,6.58 -1.8,9.45 -1.21,2.87 -2.89,5.31 -5.06,7.36 -2.17,2.03 -4.76,3.62 -7.75,4.74 -2.99,1.12 -6.29,1.69 -9.89,1.69z"/>
  <path id="path1670" class="fil1" d="M254.56 113.25l-19.89 0 -3.12 9.14 -16.52 0 22.04 -56.14 15.08 0 22.53 56.14 -17 0 -3.12 -9.14 0 0zm-9.94 -29.51l-6.17 17.39 12.35 0 -6.17 -17.39 -0.02 0z"/>
  <g>
  </g>
  <g style="clip-path:url(#id0)">
   <g id="_1758926242592">
    <path id="path1694" class="fil2" d="M309.52 101.12c0.12,-8.16 6.97,-15.52 12.87,-19.51l-12.15 -14.35c-6.43,6.47 -21.03,17.55 -21.56,33.65 -0.7,20.87 16.66,35.02 33.93,35.23 24.09,0.29 39.92,-15.27 41.81,-39.6 2.32,-29.69 -23.24,-51.79 -41.99,-72.27l-24.09 28.34 11.92 14.65 12.15 -14.15c10.85,11.85 22.81,25.13 21.96,42.25 -1.39,28.03 -35.18,25.95 -34.86,5.76l0.02 0z"/>
   </g>
  </g>
  <path class="fil1" d="M309.52 101.12c0.12,-8.16 6.97,-15.52 12.87,-19.51l-12.15 -14.35c-6.43,6.47 -21.03,17.55 -21.56,33.65 -0.7,20.87 16.66,35.02 33.93,35.23 24.09,0.29 39.92,-15.27 41.81,-39.6 2.32,-29.69 -23.24,-51.79 -41.99,-72.27l-24.09 28.34 11.92 14.65 12.15 -14.15c10.85,11.85 22.81,25.13 21.96,42.25 -1.39,28.03 -35.18,25.95 -34.86,5.76l0.02 0z"/>
  <path class="fil1" d="M309.52 101.12c0.12,-8.16 6.97,-15.52 12.87,-19.51l-12.15 -14.35c-6.43,6.47 -21.03,17.55 -21.56,33.65 -0.7,20.87 16.66,35.02 33.93,35.23 24.09,0.29 39.92,-15.27 41.81,-39.6 2.32,-29.69 -23.24,-51.79 -41.99,-72.27l-24.09 28.34 11.92 14.65 12.15 -14.15c10.85,11.85 22.81,25.13 21.96,42.25 -1.39,28.03 -35.18,25.95 -34.86,5.76l0.02 0z"/>
  <g>
  </g>
  <g style="clip-path:url(#id1)">
   <g id="_1758926204672">
    <path id="path1712" class="fil4" d="M332.62 114.82c-14.72,5.9 -30.71,-2.74 -31.78,-19.48 -0.68,-10.59 3.47,-19.89 9.39,-28.1 -6.43,6.47 -20.96,17.55 -21.56,33.65 -0.73,19.21 14.84,35.05 33.93,35.23 17.27,-0.18 34.59,-14.36 33.97,-35.23 -0.66,-22.01 -26.43,-42.17 -34.15,-47.78 10.85,11.85 22.81,25.13 21.96,42.25 -0.52,10.5 -5.63,16.79 -11.74,19.48l-0.02 -0.02z"/>
   </g>
  </g>
  <path class="fil1" d="M332.62 114.82c-14.72,5.9 -30.71,-2.74 -31.78,-19.48 -0.68,-10.59 3.47,-19.89 9.39,-28.1 -6.43,6.47 -20.96,17.55 -21.56,33.65 -0.73,19.21 14.84,35.05 33.93,35.23 17.27,-0.18 34.59,-14.36 33.97,-35.23 -0.66,-22.01 -26.43,-42.17 -34.15,-47.78 10.85,11.85 22.81,25.13 21.96,42.25 -0.52,10.5 -5.63,16.79 -11.74,19.48l-0.02 -0.02z"/>
  <path class="fil1" d="M332.62 114.82c-14.72,5.9 -30.71,-2.74 -31.78,-19.48 -0.68,-10.59 3.47,-19.89 9.39,-28.1 -6.43,6.47 -20.96,17.55 -21.56,33.65 -0.73,19.21 14.84,35.05 33.93,35.23 17.27,-0.18 34.59,-14.36 33.97,-35.23 -0.66,-22.01 -26.43,-42.17 -34.15,-47.78 10.85,11.85 22.81,25.13 21.96,42.25 -0.52,10.5 -5.63,16.79 -11.74,19.48l-0.02 -0.02z"/>
  <g>
  </g>
  <g style="clip-path:url(#id2)">
   <g id="_1758926230688">
    <path id="path1732" class="fil5" d="M332.6 114.84c-10.21,4.46 -23.31,-1.11 -23.11,-13.72 0.12,-8.16 6.4,-15.08 12.87,-19.51l-12.15 -14.35c-5.92,8.22 -10.09,17.54 -9.41,28.1 1.07,16.73 17.07,25.38 31.79,19.48l0.02 -0z"/>
   </g>
  </g>
  <path class="fil1" d="M332.6 114.84c-10.21,4.46 -23.31,-1.11 -23.11,-13.72 0.12,-8.16 6.4,-15.08 12.87,-19.51l-12.15 -14.35c-5.92,8.22 -10.09,17.54 -9.41,28.1 1.07,16.73 17.07,25.38 31.79,19.48l0.02 -0z"/>
  <path class="fil1" d="M332.6 114.84c-10.21,4.46 -23.31,-1.11 -23.11,-13.72 0.12,-8.16 6.4,-15.08 12.87,-19.51l-12.15 -14.35c-5.92,8.22 -10.09,17.54 -9.41,28.1 1.07,16.73 17.07,25.38 31.79,19.48l0.02 -0z"/>
 </g>
</svg>
